<svg viewBox="0 0 425.2 343.77" xmlns="http://www.w3.org/2000/svg"><path d="m290.83 102.56c-.72-1.47-2.21-1-3.45-1h-75.86c-21.86 0-43.73-.08-65.59.05-4.6.02-8.36 0-12.65.23-5.35.31.31 8.13 4.24 11.78 1.62 1.49 3.11 3.37 4.6 4.81 8.34 8.15 14.82 17.75 21.92 26.91 11.44 14.69 23.35 29.01 35.47 43.19 4.55 5.3 6.66 11.19 6.69 17.83 0 16.23.05 32.46.06 48.69l-.26-.16c.08 9.99.16 19.99.25 30v7.08c-.05.21-.12.39-.23.54-.02.04-.04.12-.08.16s-.08.04-.14.08c-.23.19-.59.31-1.11.33-1.9.1-3.86.14-5.77.37-3.22.39-6.37.97-9.46 1.69-2.12.49-4.23 1.03-6.33 1.67s-4.2 1.32-6.29 2.12c-5.48 2.12-10.32 5.09-14.14 9.34-.14.16-.23.33-.35.49-.23.29-.5.58-.68.91-.48.8-.79 1.65-1.01 2.54-.78 3.05-.13 6.45 2.18 8.84l.02.02c2.25 2.37 4.76 4.37 7.77 5.61.43.16.8.35 1.2.49 5.81 1.88 11.74 3.52 17.7 5.15.33.1.7.17 1.05.25 3.3.85 6.63 1.46 9.97 1.83 5.4.62 10.82.72 16.3.45.95-.04 1.86-.12 2.78-.21 1.98-.18 3.98-.45 5.92-.8 5.71-.99 11.33-2.51 16.9-4 1.46-.37 2.92-.8 4.31-1.24 3.36-1.07 6.55-2.43 9.33-4.55 2.35-1.79 4.35-3.79 5.28-6.31.37-1.11.6-2.27.53-3.61-.12-2.76-1.48-4.94-3.44-6.92-.66-.68-1.34-1.32-2.06-1.92-5.03-4.22-11.17-6.68-17.68-8.59-4.47-1.32-9.03-2.37-13.68-2.97-2.35-.31-4.72-.52-7.13-.56-.6-.02-1-.13-1.32-.32-.05-11.78-.08-23.56-.08-35.35s.03-22.69.08-34.06c.03-10.31-.64-21.04 3.17-30.92 1.8-4.68 6.12-7.72 9.28-11.47 11.5-13.6 22.38-27.63 33.39-41.59 8.72-11.11 18.06-21.71 27.24-32.46 1.21-1.42 1.98-2.7 1.16-4.4z" fill="#fff" stroke="#fff" stroke-miterlimit="10"/></svg>