<svg viewBox="0 0 425.2 343.77" xmlns="http://www.w3.org/2000/svg"><path d="m150.6 237.71c1.89.77 2.75 2.29 2.69 4.54-.12 8.75 0 17.55-.06 26.33-.06 12.24-7.14 22.59-18.51 27.23-2.53 1.02-3.21 3.62-5.5 4.73-2.81 1.39-6.4 1.98-9.61 2.13-2.41.12-4.85.25-7.32.28-2.16.03-4.33-.03-6.4-.25-4.51-.4-11.31-1.05-13.78-5.66-.34-.65-1.08-1.27-1.7-1.61-6.12-2.87-10.6-6.77-13.57-11.65l-.06-.03c-2.56-4.82-3.92-10.38-4.2-15.05-.59-8.81-.71-17.15-.71-26.02 0-2.6 1.05-4.48 3.62-5.38 11.59-4.08 23.61-4.94 36.59-5.28l.06.06c10.17-.09 20.33.77 30.47 2.87 2.75.56 5.38 1.7 8 2.75z" fill="#fff"/><g fill="none" stroke="#fff" stroke-linecap="round" stroke-linejoin="round" stroke-width=".5"><path d="m76.77 283.76c-2.56-4.82-3.92-10.38-4.2-15.05-.59-8.81-.71-17.15-.71-26.02 0-2.6 1.05-4.48 3.62-5.38 11.59-4.08 23.61-4.94 36.59-5.28"/><path d="m76.83 283.79c2.97 4.88 7.45 8.78 13.57 11.65.62.34 1.36.96 1.7 1.61 2.47 4.6 9.27 5.25 13.78 5.66 2.07.22 4.23.28 6.4.25 2.47-.03 4.91-.15 7.32-.28 3.21-.15 6.8-.74 9.61-2.13 2.29-1.11 2.97-3.71 5.5-4.73 11.37-4.64 18.45-14.99 18.51-27.23.06-8.78-.06-17.58.06-26.33.06-2.26-.8-3.77-2.69-4.54-2.63-1.05-5.25-2.19-8-2.75-10.14-2.1-20.3-2.97-30.47-2.87"/></g></svg>