<svg viewBox="0 0 425.2 343.77" xmlns="http://www.w3.org/2000/svg"><path d="m420.46 120.76v16.92c-.07.42-.16.84-.19 1.26-.33 4.72-.58 9.41-.89 14.12-.49 7.12-3.03 13.33-8.17 18.39-3.22 3.15-7.19 5.02-11.2 6.86-7.96 3.71-15.99 7.35-23.93 11.13-12.81 6.05-9.5 16.57-8.89 28.36.35 6.72 1.19 14.24-1.49 20.63-2.94 7.1-11.81 12.63-18.37 15.99-11.67 5.98-24.23 8.61-37.16 9.85l-6.02.56h-12.16c-.54-.09-1.05-.21-1.56-.23-6.93-.35-13.77-1.24-20.54-2.71-7.59-1.68-15.2-4.04-22.06-7.8-4.76-2.64-11.16-5.37-14.24-10.13-2.22-3.5-1.42-8.36-1.61-12.42-.33-6.58-.61-13.21-.89-19.82-.09-1.91-.14-3.83-.19-5.72h-.12l-.14-158.14v-22.17c0-.89 0-1.77.05-2.66.26-4.76 2.29-8.54 6.72-10.57 2.8-1.28 5.79-2.38 8.82-2.96 10.6-2.08 21.36-2.66 32.16-3.24 3.2-.19 6.4-.35 9.62-.51h19.56c.79.07 1.66.19 2.45.21 11.69.37 23.34 1.12 34.9 2.71 4.79.65 9.48 1.49 13.77 3.92 3.43 1.96 5.6 4.79 6.16 8.73.19 1.31.26 2.61.26 3.94.05 6.42 0 12.86.05 19.28.02 4.48 2.82 7.28 7.26 7.28 4.2 0 8.43-.07 12.65.02 9.57.23 17.11 4.32 22.5 12.23 2.94 4.29 4.95 9.03 6.49 13.96 3.59 11.2 5.07 22.76 5.86 34.43.19 2.75.37 5.51.54 8.29zm-27.75 27.45c1.03-11.02 1.42-22.06.28-33.1-.89-8.24-1.87-16.46-4.25-24.44-.96-3.22-2.08-6.37-4.2-9.06-1.1-1.4-2.4-2.64-4.34-2.66-3.73-.05-7.42-.05-11.11 0-1.7.02-2.99.93-3.57 2.5-.33.82-.35 1.8-.35 2.71v80.25c.35-.07.54-.07.65-.14 7.75-3.55 15.48-7.05 23.18-10.64 2.22-1.03 3.45-2.94 3.71-5.42z" fill="#fff"/><path d="m230.78 206.02v.07l-.14-.04v-158.17z" fill="#fff"/><g fill="none" stroke="#fff" stroke-miterlimit="10"><path d="m230.9 206.02c.05 1.89.09 3.8.19 5.72.28 6.61.56 13.23.89 19.82.19 4.06-.61 8.92 1.61 12.42 3.08 4.76 9.48 7.49 14.24 10.13 6.86 3.76 14.47 6.12 22.06 7.8 6.77 1.47 13.61 2.36 20.54 2.71.51.02 1.03.14 1.56.23h12.16l6.02-.56c12.93-1.24 25.49-3.87 37.16-9.85 6.56-3.36 15.43-8.89 18.37-15.99 2.68-6.4 1.84-13.91 1.49-20.63-.61-11.79-3.92-22.31 8.89-28.36 7.94-3.78 15.97-7.42 23.93-11.13 4.01-1.84 7.98-3.71 11.2-6.86 5.14-5.07 7.68-11.27 8.17-18.39.3-4.72.56-9.41.89-14.12.02-.42.12-.84.19-1.26v-16.92c-.16-2.78-.35-5.53-.54-8.29-.79-11.67-2.26-23.22-5.86-34.43-1.54-4.93-3.55-9.66-6.49-13.96-5.39-7.91-12.93-12-22.5-12.23-4.22-.09-8.45-.02-12.65-.02-4.43 0-7.24-2.8-7.26-7.28-.05-6.42 0-12.86-.05-19.28 0-1.33-.07-2.64-.26-3.94-.56-3.94-2.73-6.77-6.16-8.73-4.29-2.43-8.99-3.27-13.77-3.92-11.55-1.59-23.2-2.33-34.9-2.71-.79-.02-1.66-.14-2.45-.21h-19.56c-3.22.16-6.42.33-9.62.51-10.81.58-21.57 1.17-32.16 3.24-3.03.58-6.02 1.68-8.82 2.96-4.43 2.03-6.47 5.81-6.72 10.57-.05.89-.05 1.77-.05 2.66v22.17"/><path d="m230.64 47.88v158.17l.14.04v-.07z"/><path d="m388.73 90.67c2.38 7.98 3.36 16.2 4.25 24.44 1.14 11.04.75 22.08-.28 33.1-.26 2.47-1.49 4.39-3.71 5.42-7.7 3.59-15.43 7.1-23.18 10.64-.12.07-.3.07-.65.14v-80.25c0-.91.02-1.89.35-2.71.58-1.56 1.87-2.47 3.57-2.5 3.69-.05 7.38-.05 11.11 0 1.94.02 3.24 1.26 4.34 2.66 2.12 2.68 3.24 5.84 4.2 9.06z"/></g></svg>