<svg viewBox="0 0 425.2 343.77" xmlns="http://www.w3.org/2000/svg"><path d="m108.63 170.19c3.31 18.36 5.13 36.87 3.89 55.56-.12 2.1-.25 4.2-.46 6.27l.06.06c-1.67 7.79-2.75 15.36-4.91 22.59-1.95 6.64-4.82 13.1-7.91 19.35-1.17 2.41-3.83 4.82-6.4 5.81-4.91 1.85-9.83 2.56-14.99 3.71l-1.14.22v.03c-.65.09-1.24.12-1.82.19-12.24.99-24.35 1.05-36.47-1.21-.4-.06-.8-.12-1.14-.22-14-3.58-13.32-4.2-18.29-14.9-6.12-13.16-8.65-27.26-9.55-41.66-1.82-30.32 3.49-59.74 11.31-88.82 4.85-18.14 10.82-35.88 18.08-53.25.62-1.39.56-2.47-.12-3.83-7.94-15.67-15.79-31.34-23.67-47-1.21-2.29-1.08-2.94 1.48-3.46 4.7-.96 9.46-1.89 14.18-2.29 8.41-.65 16.94-.9 28.37-1.45 8.75.71 25.03 1.98 36.71 3.24q7.36.8 5.13 7.42c-2.16 6.37-4.11 12.98-7.08 20.3-.53 1.3-.71 2.78-1.39 4.08-3.03 6.49-6.24 12.89-9.3 19.38-.4.96-.53 2.41-.12 3.37 11.37 27.97 20.24 56.74 25.56 86.5z" fill="#fff"/><g fill="none" stroke="#fff" stroke-linecap="round" stroke-linejoin="round" stroke-width=".5"><path d="m112.06 232.03c.22-2.07.34-4.17.46-6.27 1.24-18.7-.59-37.21-3.89-55.56-5.32-29.76-14.18-58.53-25.56-86.5-.4-.96-.28-2.41.12-3.37 3.06-6.49 6.27-12.89 9.3-19.38.68-1.3.87-2.78 1.39-4.08 2.97-7.32 4.91-13.94 7.08-20.3q2.23-6.61-5.13-7.42c-11.68-1.27-27.97-2.53-36.71-3.24-11.43.56-19.96.8-28.37 1.45-4.73.4-9.49 1.33-14.18 2.29-2.56.53-2.69 1.17-1.48 3.46 7.88 15.67 15.73 31.34 23.67 47 .68 1.36.74 2.44.12 3.83-7.26 17.37-13.23 35.11-18.08 53.25-7.82 29.08-13.13 58.5-11.31 88.82.9 14.4 3.43 28.49 9.55 41.66 4.98 10.69 4.3 11.31 18.29 14.9.34.09.74.15 1.14.22 12.11 2.26 24.23 2.19 36.47 1.21.59-.06 1.17-.09 1.82-.19h.06"/><path d="m112.13 232.09c-1.67 7.79-2.75 15.36-4.91 22.59-1.95 6.64-4.82 13.1-7.91 19.35-1.17 2.41-3.83 4.82-6.4 5.81-4.91 1.85-9.83 2.56-14.99 3.71l-1.14.22"/></g></svg>