<?xml version="1.0" encoding="UTF-8"?><svg id="Layer_1" xmlns="http://www.w3.org/2000/svg" viewBox="0 0 425.2 343.77"><defs><style>.cls-1{fill:#fff;stroke-width:0px;}</style></defs><path class="cls-1" d="m217.5,290.39c11.28,3.34,21.97,6.15,32.38,9.77,3.58,1.24,6.82,4.14,9.56,6.93,4.18,4.26,4.15,9.77-.35,13.65-3.42,2.95-7.58,5.44-11.82,6.98-25.1,9.14-50.16,8.2-74.99-1.26-1.84-.7-3.65-1.65-5.26-2.78-8.3-5.86-8.58-13.26-.52-19.51,10.52-8.17,23.16-10.29,35.92-11.93,1.13-.15,2.27-.22,3.98-.39,0-4.21,0-8.29,0-12.38,0-24.25-.07-48.5.04-72.75.03-7.16-2.33-13.23-6.8-18.74-15.18-18.69-30.15-37.55-45.43-56.17-5.68-6.92-12.15-13.19-17.87-20.08-2.07-2.49-3.02-5.92-4.49-8.92,2.84-.46,5.69-1.31,8.53-1.31,48.7-.08,97.41-.07,146.11-.02,1.52,0,3.03.64,4.55.98-.7,1.91-.95,4.18-2.16,5.67-13.9,17.16-27.91,34.23-41.98,51.26-7.4,8.96-14.79,17.94-22.52,26.61-4.63,5.19-6.67,11.37-6.74,17.79-.32,29.21-.14,58.43-.14,86.62Z"/></svg>